<svg width="214" height="67" viewBox="0 0 214 67" fill="none" xmlns="http://www.w3.org/2000/svg">
<g clip-path="url(#clip0_40_331)">
<path fill-rule="evenodd" clip-rule="evenodd" d="M33.7414 5.44927C52.1461 -13.4696 98.1619 19.6364 33.7414 62.2059C-30.679 19.6405 15.3368 -13.4696 33.7414 5.44927ZM43.006 17.2831C43.006 20.0624 41.1531 24.4629 38.1422 24.4629C35.8261 24.4629 34.6681 21.6836 34.6681 19.3675C34.6681 16.5882 36.5209 12.1877 39.5318 12.1877C41.8479 12.1877 43.006 14.967 43.006 17.2831ZM32.8152 19.3675C32.8152 21.6836 31.6571 24.4629 29.341 24.4629C26.0985 24.4629 24.2456 20.0624 24.4772 17.0514C24.4772 14.7354 25.6353 11.956 27.9514 11.956C30.9623 11.956 32.8152 16.3566 32.8152 19.3675ZM41.3847 29.3267C41.3847 26.3158 43.4692 22.1469 46.4801 22.1469C48.333 22.1469 49.4911 24.2313 49.4911 26.3158C49.4911 29.3267 47.4066 33.4957 44.3956 33.4957C42.3112 33.4957 41.3847 31.4112 41.3847 29.3267ZM21.2347 22.1469C24.014 22.1469 26.3301 26.3158 26.3301 29.3267C26.3301 31.4112 25.4037 33.4957 23.3192 33.4957C20.5399 33.4957 18.2238 29.3267 18.2238 26.3158C18.2238 24.2313 19.1502 22.1469 21.2347 22.1469ZM22.856 41.3704C22.856 36.275 29.1094 28.8635 33.7416 28.8635C38.3738 28.8635 44.6273 36.275 44.6273 41.3704C44.6273 43.9181 42.5428 44.3814 40.6899 44.3814C39.3857 44.3814 38.2029 43.8958 37.0483 43.4218C35.9474 42.9699 34.8721 42.5285 33.7416 42.5285C32.4955 42.5285 31.3601 42.9718 30.2001 43.4247C28.9885 43.8978 27.75 44.3814 26.3301 44.3814C24.4772 44.3814 22.856 43.6865 22.856 41.3704Z" fill="white"/>
</g>
<path d="M82.1372 45.3994H74.6963L83.0797 20.0011H92.5048L100.888 45.3994H93.4473L87.8915 26.9956H87.6931L82.1372 45.3994ZM80.7482 35.379H94.7371V40.538H80.7482V35.379Z" fill="white"/>
<path d="M103.434 45.3994V26.3507H109.932V29.9719H110.13C110.527 28.7814 111.205 27.8389 112.164 27.1444C113.123 26.4499 114.264 26.1027 115.587 26.1027C116.926 26.1027 118.08 26.4582 119.047 27.1692C120.014 27.8719 120.597 28.8062 120.796 29.9719H120.994C121.317 28.8062 122.003 27.8719 123.053 27.1692C124.103 26.4582 125.335 26.1027 126.748 26.1027C128.576 26.1027 130.056 26.6897 131.188 27.8637C132.329 29.0377 132.9 30.6003 132.9 32.5514V45.3994H126.054V34.2877C126.054 33.4526 125.843 32.7995 125.422 32.3282C125 31.8487 124.434 31.6089 123.722 31.6089C123.02 31.6089 122.462 31.8487 122.048 32.3282C121.643 32.7995 121.441 33.4526 121.441 34.2877V45.3994H114.893V34.2877C114.893 33.4526 114.682 32.7995 114.26 32.3282C113.839 31.8487 113.272 31.6089 112.561 31.6089C112.09 31.6089 111.685 31.7164 111.346 31.9314C111.007 32.1463 110.742 32.4564 110.552 32.8615C110.37 33.2583 110.279 33.7337 110.279 34.2877V45.3994H103.434Z" fill="white"/>
<path d="M145.453 45.7466C143.386 45.7466 141.617 45.3374 140.145 44.5189C138.674 43.6921 137.545 42.5429 136.76 41.0713C135.974 39.5914 135.581 37.8758 135.581 35.9246C135.581 33.9735 135.974 32.2621 136.76 30.7904C137.545 29.3105 138.674 28.1613 140.145 27.3428C141.617 26.516 143.386 26.1027 145.453 26.1027C147.52 26.1027 149.289 26.516 150.761 27.3428C152.232 28.1613 153.361 29.3105 154.146 30.7904C154.932 32.2621 155.325 33.9735 155.325 35.9246C155.325 37.8758 154.932 39.5914 154.146 41.0713C153.361 42.5429 152.232 43.6921 150.761 44.5189C149.289 45.3374 147.52 45.7466 145.453 45.7466ZM145.503 40.6868C146.081 40.6868 146.582 40.4925 147.003 40.104C147.425 39.7154 147.751 39.1614 147.983 38.4422C148.214 37.7229 148.33 36.8672 148.33 35.875C148.33 34.8747 148.214 34.019 147.983 33.3079C147.751 32.5886 147.425 32.0347 147.003 31.6461C146.582 31.2576 146.081 31.0633 145.503 31.0633C144.891 31.0633 144.366 31.2576 143.928 31.6461C143.489 32.0347 143.155 32.5886 142.923 33.3079C142.692 34.019 142.576 34.8747 142.576 35.875C142.576 36.8672 142.692 37.7229 142.923 38.4422C143.155 39.1614 143.489 39.7154 143.928 40.104C144.366 40.4925 144.891 40.6868 145.503 40.6868Z" fill="white"/>
<path d="M158.003 45.3994V20.0011H168.966C170.851 20.0011 172.501 20.3732 173.914 21.1173C175.328 21.8614 176.428 22.9072 177.213 24.2548C177.999 25.6025 178.391 27.1775 178.391 28.9798C178.391 30.7987 177.986 32.3737 177.176 33.7048C176.374 35.0359 175.246 36.0611 173.79 36.7804C172.344 37.4996 170.653 37.8593 168.718 37.8593H162.17V32.5018H167.329C168.139 32.5018 168.83 32.3613 169.4 32.0802C169.979 31.7908 170.421 31.3816 170.727 30.8524C171.041 30.3233 171.199 29.6991 171.199 28.9798C171.199 28.2523 171.041 27.6322 170.727 27.1196C170.421 26.5987 169.979 26.2019 169.4 25.929C168.83 25.6479 168.139 25.5074 167.329 25.5074H164.899V45.3994H158.003Z" fill="white"/>
<path d="M189.739 45.7466C187.705 45.7466 185.952 45.3581 184.481 44.5809C183.017 43.7955 181.889 42.6711 181.095 41.2077C180.309 39.736 179.917 37.975 179.917 35.9246C179.917 33.9569 180.314 32.2373 181.107 30.7656C181.901 29.294 183.021 28.1489 184.468 27.3304C185.915 26.5119 187.622 26.1027 189.59 26.1027C191.029 26.1027 192.331 26.3259 193.496 26.7723C194.662 27.2188 195.658 27.8678 196.485 28.7194C197.312 29.5627 197.949 30.5879 198.395 31.795C198.841 33.002 199.065 34.3621 199.065 35.875V37.4624H182.05V33.6924H192.765C192.756 33.1467 192.616 32.6672 192.343 32.2538C192.079 31.8322 191.719 31.5056 191.264 31.2741C190.818 31.0343 190.309 30.9144 189.739 30.9144C189.185 30.9144 188.676 31.0343 188.213 31.2741C187.75 31.5056 187.378 31.828 187.097 32.2414C186.824 32.6548 186.68 33.1384 186.663 33.6924V37.7601C186.663 38.3719 186.791 38.9175 187.048 39.3971C187.304 39.8766 187.672 40.2528 188.151 40.5256C188.631 40.7984 189.21 40.9349 189.888 40.9349C190.359 40.9349 190.789 40.8687 191.177 40.7364C191.574 40.6041 191.913 40.414 192.194 40.166C192.475 39.9097 192.682 39.6038 192.814 39.2482H199.065C198.85 40.5711 198.341 41.7203 197.539 42.6959C196.737 43.6632 195.675 44.4155 194.352 44.9529C193.038 45.4821 191.5 45.7466 189.739 45.7466Z" fill="white"/>
<path d="M213.218 26.3507V31.3113H200.668V26.3507H213.218ZM203.098 21.7869H209.944V39.2731C209.944 39.5376 209.989 39.7608 210.08 39.9427C210.171 40.1164 210.312 40.2486 210.502 40.3396C210.692 40.4223 210.936 40.4636 211.234 40.4636C211.44 40.4636 211.68 40.4388 211.953 40.3892C212.234 40.3396 212.441 40.2982 212.573 40.2652L213.565 45.077C213.259 45.1679 212.821 45.2795 212.251 45.4118C211.688 45.5441 211.019 45.6309 210.242 45.6722C208.671 45.7549 207.352 45.5937 206.285 45.1886C205.219 44.7752 204.417 44.1262 203.88 43.2415C203.342 42.3569 203.082 41.249 203.098 39.9179V21.7869Z" fill="white"/>
<defs>
<clipPath id="clip0_40_331">
<rect width="66.353" height="66.353" fill="white" transform="translate(0.565125)"/>
</clipPath>
</defs>
</svg>
