<svg width="166" height="68" viewBox="0 0 166 68" fill="none" xmlns="http://www.w3.org/2000/svg">
<path d="M10.2691 67.9677C15.6285 67.9677 19.9731 63.6251 19.9731 58.2683C19.9731 52.9114 15.6285 48.5688 10.2691 48.5688C4.9098 48.5688 0.565186 52.9114 0.565186 58.2683C0.565186 63.6251 4.9098 67.9677 10.2691 67.9677Z" fill="white"/>
<path d="M105.983 25.0961C105.554 25.0961 105.142 25.2664 104.839 25.5695C104.536 25.8727 104.365 26.2839 104.365 26.7126V44.8668C104.365 51.1068 101.551 53.3377 98.6399 53.3377C95.4052 53.3377 93.3674 51.3331 93.3674 45.2548V26.7126C93.3674 26.2839 93.197 25.8727 92.8937 25.5695C92.5904 25.2664 92.179 25.0961 91.7501 25.0961H78.1969C77.7679 25.0961 77.3566 25.2664 77.0533 25.5695C76.75 25.8727 76.5796 26.2839 76.5796 26.7126V48.3425C76.5796 62.0349 83.9384 67.9677 93.6747 67.9677C95.8261 68.0047 97.9615 67.5925 99.9444 66.7574C101.927 65.9223 103.714 64.6828 105.19 63.118V65.4944C105.19 65.9231 105.36 66.3343 105.664 66.6375C105.967 66.9406 106.378 67.1109 106.807 67.1109H119.536C119.965 67.1109 120.376 66.9406 120.679 66.6375C120.983 66.3343 121.153 65.9231 121.153 65.4944V26.6965C121.153 26.2677 120.983 25.8565 120.679 25.5534C120.376 25.2502 119.965 25.0799 119.536 25.0799L105.983 25.0961Z" fill="white"/>
<path d="M144.507 67.9677C158.627 67.9677 165.533 61.3397 165.533 53.7256C165.533 36.8647 142.211 42.5713 142.211 38.1742C142.211 37.1719 143.391 36.1696 147.693 36.1696C151.182 36.1516 154.63 36.9138 157.786 38.4005C157.996 38.5049 158.225 38.5651 158.459 38.5775C158.693 38.5898 158.928 38.5539 159.147 38.4721C159.367 38.3903 159.568 38.2642 159.737 38.1017C159.906 37.9393 160.04 37.7438 160.131 37.5275L163.479 29.1698C163.622 28.7869 163.615 28.3639 163.459 27.986C163.303 27.608 163.009 27.3032 162.638 27.1329C157.839 25.1453 152.676 24.187 147.483 24.3201C133.801 24.3201 126.717 30.7864 126.717 38.7076C126.717 55.5685 150.119 49.7974 150.119 54.1136C150.119 55.3422 149.02 56.1182 144.928 56.1182C140.577 56.1174 136.284 55.1221 132.377 53.2083C132.169 53.101 131.94 53.038 131.706 53.0234C131.472 53.0087 131.237 53.0427 131.017 53.1232C130.797 53.2037 130.595 53.329 130.426 53.4911C130.256 53.6532 130.122 53.8487 130.032 54.0651L126.717 62.5522C126.571 62.8999 126.56 63.2894 126.685 63.6449C126.811 64.0004 127.064 64.2966 127.396 64.4759C132.781 66.8595 138.618 68.0507 144.507 67.9677Z" fill="white"/>
<path fill-rule="evenodd" clip-rule="evenodd" d="M21.0729 30.1398L21.5904 2.56094C21.5904 1.68799 22.2374 0.0714071 24.8251 0.0714071C29.6771 -0.462064 40.9984 1.68799 39.381 17.0455C50.4274 15.4289 73.3449 18.6621 72.5362 44.5273C71.7276 54.2268 64.4496 68.776 45.0417 67.9677C38.1824 67.3715 31.8139 64.1656 27.2511 59.0119C20.7818 51.4786 20.9112 40.6152 21.1052 30.6086L21.0729 30.1398ZM47.6618 48.5688C48.9328 48.5319 50.1647 48.1214 51.2037 47.3887C52.2353 46.648 53.0325 45.6268 53.5003 44.4465C53.9606 43.2626 54.0618 41.9694 53.7914 40.7284C53.5887 39.7995 53.1836 38.9267 52.6049 38.1723C52.0262 37.4178 51.2882 36.8001 50.4435 36.3632C49.5987 35.9264 48.6679 35.6811 47.7175 35.6448C46.767 35.6086 45.8203 35.7822 44.9446 36.1534C43.7753 36.6485 42.7776 37.4765 42.0759 38.5344C41.3741 39.5923 40.9994 40.8332 40.9984 42.1025C41.011 42.9644 41.1934 43.8154 41.5351 44.6069C41.8769 45.3983 42.3712 46.1147 42.99 46.7152C43.6088 47.3157 44.3398 47.7884 45.1414 48.1065C45.943 48.4245 46.7994 48.5816 47.6618 48.5688Z" fill="white"/>
</svg>
