<svg width="284" height="74" viewBox="0 0 284 74" fill="none" xmlns="http://www.w3.org/2000/svg">
<path d="M111.487 31.2936C110.968 30.4392 110.251 29.7831 109.335 29.3254C108.451 28.8676 107.398 28.6388 106.177 28.6388C103.919 28.6388 102.134 29.3711 100.822 30.8359C99.54 32.3006 98.8992 34.2689 98.8992 36.7406C98.8992 39.5175 99.5858 41.6384 100.959 43.1031C102.363 44.5373 104.392 45.2544 107.047 45.2544C110.19 45.2544 112.433 43.8355 113.775 40.9975H104.758V34.5435H121.511V43.2404C120.809 44.9493 119.772 46.5513 118.399 48.0466C117.056 49.5419 115.347 50.7777 113.272 51.7542C111.197 52.7002 108.832 53.1732 106.177 53.1732C102.942 53.1732 100.074 52.4866 97.5718 51.1134C95.1 49.7097 93.1775 47.772 91.8043 45.3002C90.4617 42.7979 89.7903 39.9447 89.7903 36.7406C89.7903 33.567 90.4617 30.7443 91.8043 28.2726C93.1775 25.7703 95.1 23.8326 97.5718 22.4594C100.044 21.0557 102.897 20.3538 106.131 20.3538C110.19 20.3538 113.547 21.3303 116.201 23.2833C118.856 25.2363 120.504 27.9064 121.145 31.2936H111.487Z" fill="white"/>
<path d="M137.478 53.2648C134.915 53.2648 132.611 52.7307 130.567 51.6627C128.553 50.5946 126.966 49.0689 125.806 47.0854C124.647 45.1019 124.067 42.7674 124.067 40.0821C124.067 37.4272 124.647 35.108 125.806 33.1245C126.996 31.141 128.598 29.6153 130.613 28.5472C132.657 27.4792 134.961 26.9452 137.524 26.9452C140.088 26.9452 142.376 27.4792 144.39 28.5472C146.435 29.6153 148.037 31.141 149.196 33.1245C150.387 35.108 150.982 37.4272 150.982 40.0821C150.982 42.7369 150.387 45.0714 149.196 47.0854C148.037 49.0689 146.435 50.5946 144.39 51.6627C142.346 52.7307 140.042 53.2648 137.478 53.2648ZM137.478 45.4833C138.73 45.4833 139.767 45.0256 140.591 44.1101C141.445 43.1641 141.873 41.8215 141.873 40.0821C141.873 38.3427 141.445 37.0153 140.591 36.0998C139.767 35.1843 138.745 34.7266 137.524 34.7266C136.304 34.7266 135.281 35.1843 134.457 36.0998C133.634 37.0153 133.222 38.3427 133.222 40.0821C133.222 41.852 133.618 43.1946 134.412 44.1101C135.205 45.0256 136.227 45.4833 137.478 45.4833Z" fill="white"/>
<path d="M165.983 53.2648C163.847 53.2648 161.925 52.8986 160.216 52.1662C158.507 51.4033 157.164 50.3353 156.188 48.9621C155.211 47.5889 154.723 45.9868 154.723 44.1559H160.308C160.43 45.5291 160.964 46.6582 161.91 47.5431C162.886 48.428 164.244 48.8705 165.983 48.8705C167.784 48.8705 169.188 48.4433 170.195 47.5889C171.202 46.7039 171.705 45.5749 171.705 44.2017C171.705 43.1336 171.385 42.2639 170.744 41.5926C170.133 40.9212 169.355 40.4025 168.409 40.0363C167.494 39.6701 166.212 39.2734 164.564 38.8462C162.489 38.2969 160.796 37.7476 159.484 37.1984C158.202 36.6186 157.103 35.7336 156.188 34.5435C155.272 33.3534 154.815 31.7666 154.815 29.7831C154.815 27.9522 155.272 26.3501 156.188 24.9769C157.103 23.6037 158.385 22.5509 160.033 21.8186C161.681 21.0862 163.588 20.72 165.755 20.72C168.837 20.72 171.354 21.4982 173.307 23.0544C175.291 24.5802 176.389 26.6858 176.603 29.3711H170.835C170.744 28.2116 170.195 27.2198 169.188 26.3959C168.181 25.572 166.853 25.16 165.205 25.16C163.71 25.16 162.489 25.5415 161.543 26.3043C160.597 27.0672 160.124 28.1658 160.124 29.6C160.124 30.5765 160.414 31.3852 160.994 32.026C161.604 32.6363 162.367 33.1245 163.283 33.4907C164.198 33.8569 165.449 34.2536 167.036 34.6808C169.142 35.2606 170.851 35.8404 172.163 36.4202C173.505 37 174.635 37.9002 175.55 39.1208C176.496 40.3109 176.969 41.913 176.969 43.927C176.969 45.5443 176.526 47.0701 175.642 48.5043C174.787 49.9386 173.521 51.0982 171.842 51.9831C170.195 52.8375 168.242 53.2648 165.983 53.2648Z" fill="white"/>
<path d="M189.214 31.9802V45.941C189.214 46.887 189.428 47.5736 189.855 48.0008C190.313 48.3975 191.075 48.5959 192.143 48.5959H195.348V52.9443H191.228C188.878 52.9443 187.078 52.3951 185.827 51.2965C184.576 50.1979 183.95 48.4128 183.95 45.941V31.9802H180.975V27.7233H183.95V21.4524H189.214V27.7233H195.348V31.9802H189.214Z" fill="white"/>
<path d="M222.998 27.7233V52.9443H217.78V49.9691C216.956 51.0066 215.872 51.8305 214.53 52.4408C213.218 53.0206 211.814 53.3105 210.319 53.3105C208.335 53.3105 206.55 52.8986 204.963 52.0746C203.407 51.2507 202.171 50.0301 201.256 48.4128C200.371 46.7955 199.928 44.8425 199.928 42.5538V27.7233H205.101V41.7757C205.101 44.0338 205.665 45.7732 206.794 46.9938C207.923 48.1839 209.464 48.779 211.417 48.779C213.37 48.779 214.911 48.1839 216.04 46.9938C217.2 45.7732 217.78 44.0338 217.78 41.7757V27.7233H222.998Z" fill="white"/>
<path d="M228.143 40.2194C228.143 37.6866 228.662 35.4437 229.7 33.4907C230.768 31.5377 232.202 30.0272 234.002 28.9592C235.833 27.8606 237.863 27.3113 240.09 27.3113C241.738 27.3113 243.355 27.6775 244.942 28.4099C246.559 29.1118 247.841 30.0577 248.787 31.2478V19.0722H254.051V52.9443H248.787V49.1452C247.933 50.3658 246.743 51.3728 245.217 52.1662C243.722 52.9596 241.997 53.3563 240.044 53.3563C237.847 53.3563 235.833 52.807 234.002 51.7085C232.202 50.5794 230.768 49.0231 229.7 47.0396C228.662 45.0256 228.143 42.7522 228.143 40.2194ZM248.787 40.3109C248.787 38.5716 248.421 37.061 247.689 35.7794C246.987 34.4977 246.056 33.5212 244.896 32.8499C243.737 32.1786 242.486 31.8429 241.143 31.8429C239.8 31.8429 238.549 32.1786 237.39 32.8499C236.23 33.4907 235.284 34.452 234.552 35.7336C233.85 36.9848 233.499 38.48 233.499 40.2194C233.499 41.9588 233.85 43.4845 234.552 44.7967C235.284 46.1089 236.23 47.1159 237.39 47.8177C238.58 48.4891 239.831 48.8248 241.143 48.8248C242.486 48.8248 243.737 48.4891 244.896 47.8177C246.056 47.1464 246.987 46.1699 247.689 44.8883C248.421 43.5761 248.787 42.0503 248.787 40.3109Z" fill="white"/>
<path d="M283.608 27.7233L268.137 64.7996H262.736L267.862 52.5324L257.93 27.7233H263.743L270.838 46.9481L278.207 27.7233H283.608Z" fill="white"/>
<path d="M37.5326 49.3333C39.2593 51.9233 41.5718 54.0508 44.3159 55.5L37.5326 62.2833L30.7493 55.5C33.4934 54.0508 35.8368 51.9233 37.5326 49.3333ZM52.9492 34.5333C51.3137 34.5333 49.7452 35.183 48.5888 36.3395C47.4323 37.496 46.7826 39.0645 46.7826 40.7C46.7826 42.3355 47.4323 43.904 48.5888 45.0605C49.7452 46.217 51.3137 46.8667 52.9492 46.8667C54.5848 46.8667 56.1533 46.217 57.3097 45.0605C58.4662 43.904 59.1159 42.3355 59.1159 40.7C59.1159 39.0645 58.4662 37.496 57.3097 36.3395C56.1533 35.183 54.5848 34.5333 52.9492 34.5333ZM22.1159 34.5333C20.4804 34.5333 18.9119 35.183 17.7554 36.3395C16.599 37.496 15.9493 39.0645 15.9493 40.7C15.9493 42.3355 16.599 43.904 17.7554 45.0605C18.9119 46.217 20.4804 46.8667 22.1159 46.8667C23.7514 46.8667 25.3199 46.217 26.4764 45.0605C27.6329 43.904 28.2826 42.3355 28.2826 40.7C28.2826 39.0645 27.6329 37.496 26.4764 36.3395C25.3199 35.183 23.7514 34.5333 22.1159 34.5333ZM52.9492 26.825C56.2203 26.825 59.3573 28.1244 61.6702 30.4374C63.9832 32.7503 65.2826 35.8873 65.2826 39.1583C65.2826 42.4293 63.9832 45.5664 61.6702 47.8793C59.3573 50.1923 56.2203 51.4917 52.9492 51.4917C49.6782 51.4917 46.5412 50.1923 44.2283 47.8793C41.9153 45.5664 40.6159 42.4293 40.6159 39.1583C40.6159 35.8873 41.9153 32.7503 44.2283 30.4374C46.5412 28.1244 49.6782 26.825 52.9492 26.825ZM22.1159 26.825C25.3869 26.825 28.524 28.1244 30.8369 30.4374C33.1499 32.7503 34.4493 35.8873 34.4493 39.1583C34.4493 42.4293 33.1499 45.5664 30.8369 47.8793C28.524 50.1923 25.3869 51.4917 22.1159 51.4917C18.8449 51.4917 15.7079 50.1923 13.3949 47.8793C11.082 45.5664 9.78259 42.4293 9.78259 39.1583C9.78259 35.8873 11.082 32.7503 13.3949 30.4374C15.7079 28.1244 18.8449 26.825 22.1159 26.825ZM7.43925 3.08334C12.8659 14.4917 8.95009 23.0017 5.31175 31.45C4.20175 33.9167 3.61592 36.4758 3.61592 39.1583C3.61592 44.0648 5.56502 48.7704 9.03444 52.2398C12.5039 55.7092 17.2094 57.6583 22.1159 57.6583C22.7634 57.6275 23.4109 57.5967 24.0584 57.5042L33.1851 66.6308L37.5326 70.9167L41.8801 66.6308L51.0068 57.5042C51.6543 57.5967 52.3018 57.6275 52.9492 57.6583C57.8558 57.6583 62.5613 55.7092 66.0307 52.2398C69.5001 48.7704 71.4492 44.0648 71.4492 39.1583C71.4492 36.4758 70.8634 33.9167 69.7534 31.45C66.1151 23.0017 62.1992 14.4917 67.6259 3.08334C59.4859 9.43501 47.8926 14.4608 37.5326 14.4917C27.1726 14.4608 15.5793 9.43501 7.43925 3.08334Z" fill="white"/>
</svg>
