<svg width="432" height="101" viewBox="0 0 432 101" fill="none" xmlns="http://www.w3.org/2000/svg">
<rect x="10" y="1.06421" width="18" height="13" rx="6.5" fill="url(#paint0_linear_2_21)"/>
<rect y="87.0642" width="15" height="13" rx="6.5" fill="url(#paint1_linear_2_21)"/>
<path fill-rule="evenodd" clip-rule="evenodd" d="M43.5564 0.564209H128.5C135.593 1.87493 145.861 5.67524 154.65 12.866L144.5 21.0642C133 13.3975 105.7 5.2642 88.5 34.0642C82.6667 45.7309 78.8 72.4642 110 86.0642C120.333 90.0642 144.3 91.1642 157.5 63.5642C159.5 56.3975 161.3 39.5642 152.5 29.5642L161.474 19.5928C168.231 27.6818 172.82 38.6298 172 53.0642C171 66.8975 160.9 95.6642 128.5 100.064H26.9605C25.3443 100.064 23.6931 99.7389 22.4727 98.6793C20.1514 96.6637 18.4294 93.333 21.5723 89.3547C23.2011 87.2929 25.923 86.5642 28.5506 86.5642H43.7554C46.8196 86.5642 50.0187 85.6059 51.5116 82.9299C52.8309 80.5651 53.3733 77.6277 51.4038 74.8221C49.8985 72.6779 47.0982 72.0642 44.4783 72.0642H35.6859C33.9265 72.0642 32.1131 71.6777 30.9028 70.4007C28.9218 68.3107 27.601 64.9572 30.4354 60.8923C31.8427 58.8741 34.3603 58.0642 36.8206 58.0642H56.9313C60.2064 58.0642 63.6861 57.0554 65.102 54.1022C66.1521 51.9119 66.4808 49.2371 64.803 46.557C63.387 44.2952 60.5512 43.5642 57.8827 43.5642H24.6331C21.9686 43.5642 19.1958 42.6917 17.9665 40.3277C16.9253 38.3253 16.4566 35.8228 17.76 33.2917C19.0218 30.8415 22.0044 30.0642 24.7605 30.0642H49.0147C50.606 30.0642 52.1727 29.4611 53.1027 28.1698C55.1917 25.2695 56.815 20.9876 53.8744 17.5359C52.5617 15.9952 50.429 15.5642 48.405 15.5642H44.6404C40.9456 15.5642 36.715 14.8371 35.3283 11.4124C34.5409 9.46796 34.5023 6.99897 36.175 4.12849C37.6439 1.60787 40.639 0.564209 43.5564 0.564209Z" fill="url(#paint2_linear_2_21)"/>
<path d="M119 63.0642L107.1 47.6381C106.055 46.2836 105.314 44.6441 105.501 42.9436C106.019 38.2236 109.52 37.2645 112.523 37.5449C114.167 37.6982 115.526 38.7774 116.505 40.106L122 47.5642C123.2 48.3642 124.5 47.8975 125 47.5642L176 0.0642037C178 -0.335796 178.5 1.23087 178.5 2.0642L126 63.0642C122.4 65.8642 119.833 64.2309 119 63.0642Z" fill="url(#paint3_linear_2_21)"/>
<path d="M219.684 54.2715H208.287V49.6719H219.684C221.891 49.6719 223.678 49.3203 225.045 48.6172C226.412 47.9141 227.408 46.9375 228.033 45.6875C228.678 44.4375 229 43.0117 229 41.4102C229 39.9453 228.678 38.5684 228.033 37.2793C227.408 35.9902 226.412 34.9551 225.045 34.1738C223.678 33.373 221.891 32.9727 219.684 32.9727H209.605V71H203.951V28.3438H219.684C222.906 28.3438 225.631 28.9004 227.857 30.0137C230.084 31.127 231.773 32.6699 232.926 34.6426C234.078 36.5957 234.654 38.832 234.654 41.3516C234.654 44.0859 234.078 46.4199 232.926 48.3535C231.773 50.2871 230.084 51.7617 227.857 52.7773C225.631 53.7734 222.906 54.2715 219.684 54.2715ZM239.137 55.502V54.8281C239.137 52.543 239.469 50.4238 240.133 48.4707C240.797 46.498 241.754 44.7891 243.004 43.3438C244.254 41.8789 245.768 40.7461 247.545 39.9453C249.322 39.125 251.314 38.7148 253.521 38.7148C255.748 38.7148 257.75 39.125 259.527 39.9453C261.324 40.7461 262.848 41.8789 264.098 43.3438C265.367 44.7891 266.334 46.498 266.998 48.4707C267.662 50.4238 267.994 52.543 267.994 54.8281V55.502C267.994 57.7871 267.662 59.9062 266.998 61.8594C266.334 63.8125 265.367 65.5215 264.098 66.9863C262.848 68.4316 261.334 69.5645 259.557 70.3848C257.799 71.1855 255.807 71.5859 253.58 71.5859C251.354 71.5859 249.352 71.1855 247.574 70.3848C245.797 69.5645 244.273 68.4316 243.004 66.9863C241.754 65.5215 240.797 63.8125 240.133 61.8594C239.469 59.9062 239.137 57.7871 239.137 55.502ZM244.557 54.8281V55.502C244.557 57.084 244.742 58.5781 245.113 59.9844C245.484 61.3711 246.041 62.6016 246.783 63.6758C247.545 64.75 248.492 65.5996 249.625 66.2246C250.758 66.8301 252.076 67.1328 253.58 67.1328C255.064 67.1328 256.363 66.8301 257.477 66.2246C258.609 65.5996 259.547 64.75 260.289 63.6758C261.031 62.6016 261.588 61.3711 261.959 59.9844C262.35 58.5781 262.545 57.084 262.545 55.502V54.8281C262.545 53.2656 262.35 51.791 261.959 50.4043C261.588 48.998 261.021 47.7578 260.26 46.6836C259.518 45.5898 258.58 44.7305 257.447 44.1055C256.334 43.4805 255.025 43.168 253.521 43.168C252.037 43.168 250.729 43.4805 249.596 44.1055C248.482 44.7305 247.545 45.5898 246.783 46.6836C246.041 47.7578 245.484 48.998 245.113 50.4043C244.742 51.791 244.557 53.2656 244.557 54.8281ZM280.211 46.0684V71H274.791V39.3008H279.918L280.211 46.0684ZM278.922 53.9492L276.666 53.8613C276.686 51.6934 277.008 49.6914 277.633 47.8555C278.258 46 279.137 44.3887 280.27 43.0215C281.402 41.6543 282.75 40.5996 284.312 39.8574C285.895 39.0957 287.643 38.7148 289.557 38.7148C291.119 38.7148 292.525 38.9297 293.775 39.3594C295.025 39.7695 296.09 40.4336 296.969 41.3516C297.867 42.2695 298.551 43.4609 299.02 44.9258C299.488 46.3711 299.723 48.1387 299.723 50.2285V71H294.273V50.1699C294.273 48.5098 294.029 47.1816 293.541 46.1855C293.053 45.1699 292.34 44.4375 291.402 43.9883C290.465 43.5195 289.312 43.2852 287.945 43.2852C286.598 43.2852 285.367 43.5684 284.254 44.1348C283.16 44.7012 282.213 45.4824 281.412 46.4785C280.631 47.4746 280.016 48.6172 279.566 49.9062C279.137 51.1758 278.922 52.5234 278.922 53.9492ZM321.227 39.3008V43.4609H304.088V39.3008H321.227ZM309.889 31.5957H315.309V63.1484C315.309 64.2227 315.475 65.0332 315.807 65.5801C316.139 66.127 316.568 66.4883 317.096 66.6641C317.623 66.8398 318.189 66.9277 318.795 66.9277C319.244 66.9277 319.713 66.8887 320.201 66.8105C320.709 66.7129 321.09 66.6348 321.344 66.5762L321.373 71C320.943 71.1367 320.377 71.2637 319.674 71.3809C318.99 71.5176 318.16 71.5859 317.184 71.5859C315.855 71.5859 314.635 71.3223 313.521 70.7949C312.408 70.2676 311.52 69.3887 310.855 68.1582C310.211 66.9082 309.889 65.2285 309.889 63.1191V31.5957ZM325.562 55.502V54.8281C325.562 52.543 325.895 50.4238 326.559 48.4707C327.223 46.498 328.18 44.7891 329.43 43.3438C330.68 41.8789 332.193 40.7461 333.971 39.9453C335.748 39.125 337.74 38.7148 339.947 38.7148C342.174 38.7148 344.176 39.125 345.953 39.9453C347.75 40.7461 349.273 41.8789 350.523 43.3438C351.793 44.7891 352.76 46.498 353.424 48.4707C354.088 50.4238 354.42 52.543 354.42 54.8281V55.502C354.42 57.7871 354.088 59.9062 353.424 61.8594C352.76 63.8125 351.793 65.5215 350.523 66.9863C349.273 68.4316 347.76 69.5645 345.982 70.3848C344.225 71.1855 342.232 71.5859 340.006 71.5859C337.779 71.5859 335.777 71.1855 334 70.3848C332.223 69.5645 330.699 68.4316 329.43 66.9863C328.18 65.5215 327.223 63.8125 326.559 61.8594C325.895 59.9062 325.562 57.7871 325.562 55.502ZM330.982 54.8281V55.502C330.982 57.084 331.168 58.5781 331.539 59.9844C331.91 61.3711 332.467 62.6016 333.209 63.6758C333.971 64.75 334.918 65.5996 336.051 66.2246C337.184 66.8301 338.502 67.1328 340.006 67.1328C341.49 67.1328 342.789 66.8301 343.902 66.2246C345.035 65.5996 345.973 64.75 346.715 63.6758C347.457 62.6016 348.014 61.3711 348.385 59.9844C348.775 58.5781 348.971 57.084 348.971 55.502V54.8281C348.971 53.2656 348.775 51.791 348.385 50.4043C348.014 48.998 347.447 47.7578 346.686 46.6836C345.943 45.5898 345.006 44.7305 343.873 44.1055C342.76 43.4805 341.451 43.168 339.947 43.168C338.463 43.168 337.154 43.4805 336.021 44.1055C334.908 44.7305 333.971 45.5898 333.209 46.6836C332.467 47.7578 331.91 48.998 331.539 50.4043C331.168 51.791 330.982 53.2656 330.982 54.8281ZM395.23 48.207V65.7266C394.508 66.5273 393.395 67.3867 391.891 68.3047C390.406 69.2031 388.531 69.9746 386.266 70.6191C384 71.2637 381.334 71.5859 378.268 71.5859C375.436 71.5859 372.867 71.1367 370.562 70.2383C368.258 69.3203 366.275 67.9824 364.615 66.2246C362.975 64.4473 361.705 62.2793 360.807 59.7207C359.928 57.1426 359.488 54.1934 359.488 50.873V48.5C359.488 45.1797 359.938 42.2305 360.836 39.6523C361.734 37.0742 362.994 34.9062 364.615 33.1484C366.256 31.3711 368.18 30.0234 370.387 29.1055C372.613 28.1875 375.055 27.7285 377.711 27.7285C381.637 27.7285 384.83 28.3535 387.291 29.6035C389.752 30.834 391.617 32.543 392.887 34.7305C394.156 36.8984 394.928 39.4082 395.201 42.2598H385.328C385.133 40.8535 384.762 39.6621 384.215 38.6855C383.688 37.6895 382.926 36.9375 381.93 36.4297C380.934 35.9023 379.645 35.6387 378.062 35.6387C376.832 35.6387 375.709 35.9023 374.693 36.4297C373.697 36.957 372.848 37.7578 372.145 38.832C371.441 39.8867 370.895 41.2148 370.504 42.8164C370.133 44.418 369.947 46.293 369.947 48.4414V50.873C369.947 53.002 370.123 54.8672 370.475 56.4688C370.846 58.0703 371.393 59.4082 372.115 60.4824C372.857 61.5371 373.795 62.3379 374.928 62.8848C376.08 63.4121 377.438 63.6758 379 63.6758C380.094 63.6758 381.031 63.5879 381.812 63.4121C382.594 63.2168 383.238 62.9824 383.746 62.709C384.273 62.416 384.674 62.1426 384.947 61.8887V55.2676H377.799V48.207H395.23ZM399.537 55.4727V54.8574C399.537 52.5332 399.869 50.3945 400.533 48.4414C401.197 46.4688 402.174 44.7598 403.463 43.3145C404.752 41.8691 406.344 40.7461 408.238 39.9453C410.133 39.125 412.32 38.7148 414.801 38.7148C417.301 38.7148 419.498 39.125 421.393 39.9453C423.307 40.7461 424.908 41.8691 426.197 43.3145C427.486 44.7598 428.463 46.4688 429.127 48.4414C429.791 50.3945 430.123 52.5332 430.123 54.8574V55.4727C430.123 57.7773 429.791 59.916 429.127 61.8887C428.463 63.8418 427.486 65.5508 426.197 67.0156C424.908 68.4609 423.316 69.584 421.422 70.3848C419.527 71.1855 417.34 71.5859 414.859 71.5859C412.379 71.5859 410.182 71.1855 408.268 70.3848C406.354 69.584 404.752 68.4609 403.463 67.0156C402.174 65.5508 401.197 63.8418 400.533 61.8887C399.869 59.916 399.537 57.7773 399.537 55.4727ZM409.41 54.8574V55.4727C409.41 56.6641 409.498 57.7773 409.674 58.8125C409.85 59.8477 410.143 60.7559 410.553 61.5371C410.963 62.2988 411.52 62.8945 412.223 63.3242C412.926 63.7539 413.805 63.9688 414.859 63.9688C415.895 63.9688 416.754 63.7539 417.438 63.3242C418.141 62.8945 418.697 62.2988 419.107 61.5371C419.518 60.7559 419.811 59.8477 419.986 58.8125C420.162 57.7773 420.25 56.6641 420.25 55.4727V54.8574C420.25 53.7051 420.162 52.6211 419.986 51.6055C419.811 50.5703 419.518 49.6621 419.107 48.8809C418.697 48.0801 418.141 47.4551 417.438 47.0059C416.734 46.5566 415.855 46.332 414.801 46.332C413.766 46.332 412.896 46.5566 412.193 47.0059C411.51 47.4551 410.963 48.0801 410.553 48.8809C410.143 49.6621 409.85 50.5703 409.674 51.6055C409.498 52.6211 409.41 53.7051 409.41 54.8574Z" fill="#330693"/>
<defs>
<linearGradient id="paint0_linear_2_21" x1="27.989" y1="7.53154" x2="10.0039" y2="7.53155" gradientUnits="userSpaceOnUse">
<stop stop-color="#330693"/>
<stop offset="0.198527" stop-color="#390C9A"/>
<stop offset="1" stop-color="#8A53FF"/>
</linearGradient>
<linearGradient id="paint1_linear_2_21" x1="14.9908" y1="93.5315" x2="0.00326632" y2="93.5315" gradientUnits="userSpaceOnUse">
<stop stop-color="#330693"/>
<stop offset="0.198527" stop-color="#390C9A"/>
<stop offset="1" stop-color="#8A53FF"/>
</linearGradient>
<linearGradient id="paint2_linear_2_21" x1="172" y1="50.0642" x2="17" y2="50.0642" gradientUnits="userSpaceOnUse">
<stop stop-color="#330693"/>
<stop offset="0.198527" stop-color="#390C9A"/>
<stop offset="1" stop-color="#8A53FF"/>
</linearGradient>
<linearGradient id="paint3_linear_2_21" x1="177" y1="0.0642079" x2="103" y2="70.5642" gradientUnits="userSpaceOnUse">
<stop stop-color="#330693"/>
<stop offset="0.275577" stop-color="#340794"/>
<stop offset="0.43442" stop-color="#390C9A"/>
<stop offset="1" stop-color="#8A53FF"/>
</linearGradient>
</defs>
</svg>
