<svg width="179" height="101" viewBox="0 0 179 101" fill="none" xmlns="http://www.w3.org/2000/svg">
<rect x="10" y="1.06421" width="18" height="13" rx="6.5" fill="white"/>
<rect y="87.0642" width="15" height="13" rx="6.5" fill="white"/>
<path fill-rule="evenodd" clip-rule="evenodd" d="M43.5564 0.564209H128.5C135.593 1.87493 145.861 5.67524 154.65 12.866L144.5 21.0642C133 13.3975 105.7 5.2642 88.5 34.0642C82.6667 45.7309 78.8 72.4642 110 86.0642C120.333 90.0642 144.3 91.1642 157.5 63.5642C159.5 56.3975 161.3 39.5642 152.5 29.5642L161.474 19.5928C168.231 27.6818 172.82 38.6298 172 53.0642C171 66.8975 160.9 95.6642 128.5 100.064H26.9605C25.3443 100.064 23.6931 99.7389 22.4727 98.6793C20.1514 96.6637 18.4294 93.333 21.5723 89.3547C23.2011 87.2929 25.923 86.5642 28.5506 86.5642H43.7554C46.8196 86.5642 50.0187 85.6059 51.5116 82.9299C52.8309 80.5651 53.3733 77.6277 51.4038 74.8221C49.8985 72.6779 47.0982 72.0642 44.4783 72.0642H35.6859C33.9265 72.0642 32.1131 71.6777 30.9028 70.4007C28.9218 68.3107 27.601 64.9572 30.4354 60.8923C31.8427 58.8741 34.3603 58.0642 36.8206 58.0642H56.9313C60.2064 58.0642 63.6861 57.0554 65.102 54.1022C66.1521 51.9119 66.4808 49.2371 64.803 46.557C63.387 44.2952 60.5512 43.5642 57.8827 43.5642H24.6331C21.9686 43.5642 19.1958 42.6917 17.9665 40.3277C16.9253 38.3253 16.4566 35.8228 17.76 33.2917C19.0218 30.8415 22.0044 30.0642 24.7605 30.0642H49.0147C50.606 30.0642 52.1727 29.4611 53.1027 28.1698C55.1917 25.2695 56.815 20.9876 53.8744 17.5359C52.5617 15.9952 50.429 15.5642 48.405 15.5642H44.6404C40.9456 15.5642 36.715 14.8371 35.3283 11.4124C34.5409 9.46796 34.5023 6.99897 36.175 4.12849C37.6439 1.60787 40.639 0.564209 43.5564 0.564209Z" fill="white"/>
<path d="M119 63.0642L107.1 47.6381C106.055 46.2836 105.314 44.6441 105.501 42.9436C106.019 38.2236 109.52 37.2645 112.523 37.5449C114.167 37.6982 115.526 38.7774 116.505 40.106L122 47.5642C123.2 48.3642 124.5 47.8975 125 47.5642L176 0.0642037C178 -0.335796 178.5 1.23087 178.5 2.0642L126 63.0642C122.4 65.8642 119.833 64.2309 119 63.0642Z" fill="white"/>
</svg>
